<svg xmlns="http://www.w3.org/2000/svg" xmlns:xlink="http://www.w3.org/1999/xlink" version="1.1" id="Layer_1" x="0px" y="0px" style="enable-background:new 0 0 1920 1080;" xml:space="preserve" viewBox="778.01 338.71 363.98 402.71">
<style type="text/css">
	.st0{fill:#00FFFF;}
	.st1{fill:#103465;}
	.st2{fill:#1DA3D8;}
	.st3{fill:none;stroke:#FFFFFF;stroke-width:10;stroke-miterlimit:10;}
	.st4{fill:none;stroke:#103465;stroke-width:20;stroke-linecap:round;stroke-miterlimit:10;}
	.st5{fill:none;}
	.st6{fill:#FFFFFF;}
</style>
<g>
	<g>
		<polygon class="st0" points="961.02,731.46 961.3,731.3 961.02,731.15   "/>
		<polygon class="st1" points="1129.99,449.83 1108.65,428.75 959.6,345.01 959.6,731.13 1121.23,640.32   "/>
		<polygon class="st0" points="961.02,344.68 961.02,345.01 961.31,344.84   "/>
		<polygon class="st0" points="961.6,731.46 961.6,731.13 961.3,731.3   "/>
		<polygon class="st2" points="810.97,428.75 789.63,449.83 788.39,640.32 960.02,731.15 960.02,345.01   "/>
		<polygon class="st0" points="961.6,344.68 961.31,344.84 961.6,345.01   "/>
	</g>
	<path class="st3" d="M959.6,731.13"/>
	<path class="st4" d="M977.4,438.67"/>
	<path class="st3" d="M1110.65,651.39"/>
	<path class="st3" d="M1110.65,651.39"/>
	<g>
		<path class="st5" d="M976.86,717.08l128.79-74.36c10.08-5.82,16.34-16.66,16.34-28.3V465.71c0-11.64-6.26-22.48-16.34-28.3    l-128.79-74.36c-5.04-2.91-10.69-4.36-16.34-4.36c-0.31,0-0.61,0.02-0.92,0.03v362.7C965.56,721.58,971.55,720.15,976.86,717.08z"/>
		<path class="st2" d="M1115.65,420.09l-128.79-74.36c-8.4-4.85-17.85-7.17-27.26-7.01v19.99c0.31-0.01,0.61-0.03,0.92-0.03    c5.65,0,11.3,1.46,16.34,4.36l128.79,74.36c10.08,5.82,16.34,16.66,16.34,28.3v148.71c0,11.64-6.26,22.48-16.34,28.3    l-128.79,74.36c-5.31,3.07-11.3,4.5-17.26,4.33v19.99c0.31,0.01,0.61,0.03,0.92,0.03c9.11,0,18.22-2.34,26.34-7.04l128.79-74.36    c16.25-9.38,26.34-26.86,26.34-45.62V465.71C1141.99,446.95,1131.9,429.47,1115.65,420.09z"/>
	</g>
	<g>
		<path class="st5" d="M943.14,717.08l-128.79-74.36c-10.08-5.82-16.34-16.66-16.34-28.3V465.71c0-11.64,6.26-22.48,16.34-28.3    l128.79-74.36c5.04-2.91,10.69-4.36,16.34-4.36c0.31,0,0.61,0.02,0.92,0.03v362.7C954.44,721.58,948.45,720.15,943.14,717.08z"/>
		<path class="st1" d="M804.35,420.09l128.79-74.36c8.4-4.85,17.85-7.17,27.26-7.01v19.99c-0.31-0.01-0.61-0.03-0.92-0.03    c-5.65,0-11.3,1.46-16.34,4.36l-128.79,74.36c-10.08,5.82-16.34,16.66-16.34,28.3v148.71c0,11.64,6.26,22.48,16.34,28.3    l128.79,74.36c5.31,3.07,11.3,4.5,17.26,4.33v19.99c-0.31,0.01-0.61,0.03-0.92,0.03c-9.11,0-18.22-2.34-26.34-7.04l-128.79-74.36    c-16.25-9.38-26.34-26.86-26.34-45.62V465.71C778.01,446.95,788.1,429.47,804.35,420.09z"/>
	</g>
	<g>
		<path class="st5" d="M971.34,589.35c0-6.16-5.01-11.17-11.17-11.17c-0.19,0-0.38,0.02-0.57,0.03l0,0    c-5.89,0.3-10.59,5.17-10.59,11.14"/>
		<path class="st5" d="M1048.28,481.76l-83.26-48.07c-1.37-0.79-2.88-1.21-4.41-1.3l0,0c-0.19-0.01-0.39-0.04-0.58-0.04    c-0.14,0-0.28,0.02-0.42,0.03l0,0c-1.59,0.07-3.16,0.49-4.57,1.31l-84.49,48.78c-3.08,1.78-4.99,5.09-4.99,8.65v97.56    c0,3.56,1.91,6.87,4.99,8.65l54.79,31.63c1.64,0.95,3.69-0.24,3.69-2.13v-37.48c0-16.99,13.67-30.84,30.59-31.15l0,0    c0.19,0,0.38-0.01,0.57-0.01c0.14,0,0.28,0.01,0.43,0.01l0,0c16.99,0.23,30.74,14.11,30.74,31.15v37.3c0,1.89,2.05,3.08,3.69,2.13    l53.25-30.74c3.85-2.22,6.22-6.33,6.22-10.77v-94.73C1054.5,488.09,1052.13,483.98,1048.28,481.76z"/>
		<g>
			<path class="st6" d="M1059.51,465.15l-84.49-48.78c-4.45-2.57-9.42-3.88-14.41-3.97v-0.01c-0.14,0-0.28,0.01-0.42,0.01     c-0.19,0-0.39-0.01-0.58-0.01v0.02c-5.04,0.07-10.07,1.37-14.57,3.97l-84.49,48.78c-9.25,5.34-14.99,15.29-14.99,25.97v97.56     c0,10.68,5.75,20.63,14.99,25.97l84.49,48.78c0.1,0.06,0.2,0.11,0.3,0.17c1.65,0.92,3.68-0.29,3.68-2.18v-18.79v-53.29     c0-5.96,4.7-10.83,10.59-11.14c0.19-0.01,0.38-0.03,0.57-0.03c6.16,0,11.17,5.01,11.17,11.17v53.11l-0.31,0.18h0.31v18.67     c0,1.88,2.04,3.06,3.67,2.12v0l84.49-48.78c9.25-5.34,14.99-15.29,14.99-25.97v-97.56     C1074.5,480.44,1068.75,470.49,1059.51,465.15z M1054.5,587.25c0,4.45-2.38,8.57-6.23,10.8l-53.2,30.72     c-1.66,0.96-3.72-0.24-3.72-2.15v-37.26c0-17.04-13.75-30.92-30.74-31.15c-0.14,0-0.28-0.01-0.43-0.01     c-0.19,0-0.38,0.01-0.57,0.01c-16.92,0.31-30.59,14.16-30.59,31.15v37.44c0,1.91-2.07,3.11-3.72,2.15l-54.75-31.61     c-3.08-1.78-4.99-5.09-4.99-8.65v-97.56c0-3.56,1.91-6.87,4.99-8.65l84.49-48.78c1.42-0.82,2.99-1.24,4.57-1.31     c0.14-0.01,0.28-0.03,0.42-0.03c0.19,0,0.39,0.03,0.58,0.04c1.53,0.09,3.05,0.51,4.41,1.3l83.25,48.07     c3.86,2.23,6.23,6.34,6.23,10.8V587.25z"/>
		</g>
	</g>
</g>
</svg>